<svg width="24" height="24" viewBox="0 0 24 24" fill="none" xmlns="http://www.w3.org/2000/svg">
<rect x="9" y="4" width="6" height="7" fill="#FFFF00"/>
<rect x="8" y="5" width="8" height="7" fill="#FFFF00"/>
<rect x="6" y="8" width="12" height="4" fill="#FFFF00"/>
<rect x="7" y="13" width="9" height="1" fill="#FFFF00"/>
<rect x="8" y="14" width="8" height="1" fill="#FFFF00"/>
<rect x="9" y="15" width="6" height="2" fill="#FFFF00"/>
<rect x="10" y="18" width="4" height="2" fill="#FFFF00"/>
<rect x="7" y="6" width="10" height="7" fill="#FFFF00"/>
<path d="M6.74998 9.75C6.74984 8.88473 6.96356 8.03284 7.37214 7.27011C7.78072 6.50738 8.37148 5.85746 9.09187 5.37817C9.81227 4.89887 10.64 4.60506 11.5013 4.52288C12.3627 4.44069 13.231 4.57267 14.029 4.90709C14.8271 5.2415 15.5301 5.76797 16.0755 6.43968C16.621 7.11138 16.9919 7.90748 17.1554 8.75716C17.3189 9.60684 17.2698 10.4838 17.0126 11.3099C16.7554 12.1361 16.2979 12.8858 15.681 13.4925C15.3915 13.7775 15.1365 14.148 15.0135 14.5965L14.496 16.5H9.50398L8.98498 14.5965C8.86442 14.1761 8.63462 13.7952 8.31898 13.4925C7.82221 13.004 7.42764 12.4215 7.15826 11.779C6.88889 11.1364 6.7501 10.4467 6.74998 9.75ZM9.91498 18H14.085L13.8285 18.948C13.785 19.1068 13.6906 19.2468 13.5596 19.3466C13.4287 19.4463 13.2686 19.5002 13.104 19.5H10.896C10.7314 19.5002 10.5713 19.4463 10.4403 19.3466C10.3094 19.2468 10.2149 19.1068 10.1715 18.948L9.91498 18ZM12 3C10.6603 3.00022 9.35105 3.39907 8.23879 4.14576C7.12654 4.89245 6.26162 5.95322 5.75415 7.19303C5.24668 8.43284 5.1196 9.79562 5.38909 11.1079C5.65859 12.4201 6.31246 13.6225 7.26748 14.562C7.39395 14.6791 7.48712 14.8277 7.53748 14.9925L8.72548 19.3425C8.85543 19.8186 9.13829 20.2387 9.5305 20.5382C9.9227 20.8377 10.4025 21 10.896 21H13.104C13.5975 21 14.0773 20.8377 14.4695 20.5382C14.8617 20.2387 15.1445 19.8186 15.2745 19.3425L16.461 14.9925C16.5118 14.8275 16.6055 14.6789 16.7325 14.562C17.6875 13.6225 18.3414 12.4201 18.6109 11.1079C18.8804 9.79562 18.7533 8.43284 18.2458 7.19303C17.7383 5.95322 16.8734 4.89245 15.7612 4.14576C14.6489 3.39907 13.3396 3.00022 12 3Z" fill="black"/>
</svg>
